<?xml version="1.0" encoding="UTF-8"?>
<svg width="141px" height="48px" viewBox="0 0 141 48" version="1.1" xmlns="http://www.w3.org/2000/svg" xmlns:xlink="http://www.w3.org/1999/xlink">
    <title>CUBE LOGO</title>
    <defs>
        <polygon id="path-1" points="0.342580645 0.55 39.596129 0.55 39.596129 21.8303412 0.342580645 21.8303412"></polygon>
        <polygon id="path-3" points="0 0.581763636 18.7098067 0.581763636 18.7098067 35 0 35"></polygon>
        <polygon id="path-5" points="0.27018 0.581763636 18.980116 0.581763636 18.980116 35 0.27018 35"></polygon>
        <polygon id="path-7" points="0.193628571 0.535730233 17.4201429 0.535730233 17.4201429 26.8845907 0.193628571 26.8845907"></polygon>
    </defs>
    <g id="Page-1" stroke="none" stroke-width="1" fill="none" fill-rule="evenodd">
        <g id="CUBE-LOGO">
            <g id="Group-3">
                <mask id="mask-2" fill="white">
                    <use xlink:href="#path-1"></use>
                </mask>
                <g id="Clip-2"></g>
                <path d="M22.4670968,1.24934118 L22.4606452,1.24934118 L22.0729032,1.03322353 C20.9148387,0.388752941 19.0193548,0.388752941 17.8612903,1.03322353 L17.4729032,1.24934118 L17.4716129,1.24934118 L17.2090323,1.39622353 L16.8445161,1.59875294 L16.8470968,1.59875294 L0.342580645,10.8406941 L19.9690323,21.8303412 L39.596129,10.8406941 L22.4670968,1.24934118 Z" id="Fill-1" fill="#0081C2" mask="url(#mask-2)"></path>
            </g>
            <g id="Group-6" transform="translate(0.000000, 13.000000)">
                <mask id="mask-4" fill="white">
                    <use xlink:href="#path-3"></use>
                </mask>
                <g id="Clip-5"></g>
                <path d="M-0.000126666667,0.581763636 L-0.000126666667,21.0064909 L0.00114,21.0090364 L0.000506666667,21.6027636 C-0.00202666667,23.3088545 1.01384,25.2523091 2.25770667,25.9217636 L2.93284,26.2851273 L14.12574,32.6328545 L17.2708733,34.4165818 L17.2765733,34.4165818 L17.6572067,34.6291273 C17.9643733,34.8003091 18.3260067,34.9212182 18.7098067,35.0001273 L18.7098067,14.9114 L18.7098067,11.1931273 L-0.000126666667,0.581763636 Z" id="Fill-4" fill="#0081C2" mask="url(#mask-4)"></path>
            </g>
            <g id="Group-9" transform="translate(21.000000, 13.000000)">
                <mask id="mask-6" fill="white">
                    <use xlink:href="#path-5"></use>
                </mask>
                <g id="Clip-8"></g>
                <path d="M18.980116,0.581763636 L18.980116,21.0064909 L18.9788467,21.0090364 L18.980116,21.6027636 C18.9820133,23.3088545 17.9661467,25.2523091 16.72228,25.9217636 L16.0471467,26.2851273 L4.85488,32.6328545 L1.70974667,34.4165818 L1.70404667,34.4165818 L1.32278,34.6291273 C1.01561333,34.8003091 0.65398,34.9212182 0.27018,35.0001273 L0.27018,14.9114 L0.27018,11.1931273 L18.980116,0.581763636 Z" id="Fill-7" fill="#0081C2" mask="url(#mask-6)"></path>
            </g>
            <path d="M70.2847103,33.3272448 C69.9492127,32.9919622 69.554284,32.8246354 69.1005635,32.8258935 C68.6468429,32.8271516 68.2078203,32.9724617 67.7828566,33.2630819 C67.4000698,33.5492987 66.9955556,33.8002889 66.5744262,34.024859 C66.4300024,34.1034901 66.2830225,34.1752015 66.1347645,34.2456549 C66.0817239,34.2708168 66.0299615,34.2972368 65.9762818,34.3217697 C65.4158411,34.5771632 64.8323947,34.7803457 64.2240257,34.927543 C63.3939088,35.1288384 62.5446205,35.228857 61.6768,35.228857 C60.3226677,35.228857 59.0650309,35.0219002 57.9032506,34.6067285 C56.7408312,34.1921858 55.7317822,33.5637668 54.8767426,32.7214715 C54.0204249,31.8791762 53.3500687,30.8487955 52.865674,29.6290713 C52.3800013,28.4099762 52.1378039,27.0084572 52.1378039,25.4245142 C52.1378039,23.9915428 52.36083,22.68501 52.8081601,21.5030287 C53.2548512,20.3216765 53.8996457,19.2969573 54.7425435,18.428871 C55.5854414,17.5620428 56.5874609,16.8958809 57.7498803,16.4310144 C58.9116606,15.9655188 60.2204208,15.7327711 61.6768,15.7327711 C62.5957439,15.7327711 63.4642035,15.8459997 64.2815396,16.072457 C65.0982366,16.2989143 65.8772302,16.6002283 66.6185201,16.9776571 C67.0524304,17.2041144 67.4927311,17.2921812 67.9400612,17.2412283 C68.3867523,17.1915335 68.7503678,16.9776571 69.0321858,16.6002283 C69.4149727,16.1234099 69.5613135,15.5956386 69.4724865,15.0169144 C69.3823815,14.4388193 69.0571085,14.0110666 68.4953897,13.7342854 C67.4997605,13.1819813 66.4204168,12.7535996 65.2586365,12.4522855 C64.0955781,12.1503425 62.9024846,12 61.6768,12 C59.7098254,12 57.8962211,12.3333955 56.2366263,12.9989283 C54.5757533,13.6657192 53.1270426,14.5960813 51.8885771,15.7900144 C50.6494726,16.9839476 49.691547,18.4043381 49.0154395,20.0511859 C48.3386928,21.6980336 48,23.4889334 48,25.4245142 C48,27.5871814 48.3642546,29.5101813 49.0921246,31.1941429 C49.8199947,32.8787335 50.8220142,34.299124 52.0988223,35.4553143 C53.3762694,36.6121336 54.8313705,37.4915428 56.4660427,38.0947999 C58.1007149,38.698686 59.837634,39 61.6768,39 C62.4934971,39 63.2980523,38.9245142 64.0898267,38.7735427 C64.880962,38.6225712 65.6605946,38.4219049 66.4268072,38.1702856 C67.1930199,37.9192955 67.8953282,37.6179815 68.5337322,37.2650855 C68.5624892,37.2506174 68.5886899,37.2336331 68.6161688,37.2179069 C69.1932247,36.9103024 69.7242695,36.5769069 70.2048299,36.2133172 C70.6975321,35.8616793 70.9620959,35.4093938 70.9966043,34.8545734 C71.0317516,34.299753 70.7940276,33.7908532 70.2847103,33.3272448" id="Fill-10" fill="#222628"></path>
            <path d="M93.1506887,12 C93.7157025,12 94.1656566,12.1847439 94.4992654,12.5535946 C94.8328742,12.9230824 95,13.3881273 95,13.9474553 L95,28.421183 C95,30.4584621 94.5506887,32.2785079 93.6520661,33.8825944 C92.7521579,35.486681 91.5192837,36.7403912 89.9521579,37.6437251 C88.3850321,38.5483331 86.5742883,39 84.5192837,39 C82.4899908,39 80.6850321,38.5483331 79.1050505,37.6437251 C77.5250689,36.7403912 76.2786961,35.486681 75.3672176,33.8825944 C74.4557392,32.2785079 74,30.4584621 74,28.421183 L74,13.9474553 C74,13.3881273 74.1921947,12.9230824 74.5772268,12.5535946 C74.9629017,12.1847439 75.4636364,12 76.0800735,12 C76.5679522,12 77.0114784,12.1847439 77.4100092,12.5535946 C77.8078972,12.9230824 78.0071625,13.3881273 78.0071625,13.9474553 L78.0071625,28.421183 C78.0071625,29.7710875 78.3086318,30.9483519 78.9128558,31.9536135 C79.5164371,32.9601491 80.3192837,33.7488144 81.320753,34.3215204 C82.322865,34.8942265 83.3886134,35.180898 84.5192837,35.180898 C85.7528007,35.180898 86.8828283,34.8942265 87.910652,34.3215204 C88.9371901,33.7488144 89.7657484,32.9601491 90.3956841,31.9536135 C91.024977,30.9483519 91.3399449,29.7710875 91.3399449,28.421183 L91.3399449,13.9474553 C91.3399449,13.3881273 91.5,12.9230824 91.8213958,12.5535946 C92.1421488,12.1847439 92.5856749,12 93.1506887,12" id="Fill-12" fill="#222628"></path>
            <path d="M113.648175,34.2367324 C112.832616,34.9444987 111.761996,35.2970951 110.436952,35.2970951 L103.128168,35.2970951 L103.128168,26.8116198 L110.207397,26.8116198 C110.920931,26.8116198 111.634465,26.9145676 112.347999,27.1198198 C113.061534,27.3263589 113.660928,27.7246384 114.144907,28.315945 C114.628886,28.9078951 114.871194,29.8074018 114.871194,31.015752 C114.871194,32.4563782 114.463096,33.5296094 113.648175,34.2367324 M112.539933,16.6867002 C113.176311,17.2915187 113.495138,18.1974597 113.495138,19.4058099 C113.495138,20.5890666 113.144429,21.4827825 112.443647,22.0869576 C111.742866,22.6911327 110.934322,23.0064104 110.016738,23.0315039 L103.128168,23.0315039 L103.128168,15.7801158 L109.94022,15.7801158 C111.035709,15.7801158 111.90228,16.0825251 112.539933,16.6867002 M118.158935,27.4093606 C117.5978,26.4455115 116.884266,25.6804804 116.018333,25.1142673 C115.451459,24.744942 114.859079,24.4476801 114.243105,24.2205514 C114.292842,24.1967448 114.34513,24.1748683 114.393592,24.1504182 C115.450821,23.6099421 116.252989,22.8712914 116.801371,21.9318924 C117.349753,20.9937802 117.623306,19.946286 117.623306,18.7887663 C117.623306,16.5773181 117.018173,14.8934776 115.807907,13.7359579 C114.597003,12.5784381 112.819863,12 110.475211,12 L100.949944,12 C100.414953,12 99.9558425,12.186593 99.5732504,12.5597789 C99.191296,12.9323213 99,13.4020208 99,13.9675905 L99,37.0330529 C99,37.599266 99.191296,38.0689655 99.5732504,38.4408646 C99.9558425,38.8140505 100.414953,39 100.949944,39 L110.475211,39 C111.443169,39 112.430894,38.8783929 113.437749,38.6338918 C114.444604,38.3900341 115.367926,37.9724519 116.209629,37.3805019 C117.050056,36.7891952 117.725331,35.9726902 118.235454,34.9309868 C118.744939,33.8892834 119,32.585063 119,31.015752 C119,29.5757691 118.718795,28.3738532 118.158935,27.4093606" id="Fill-14" fill="#222628"></path>
            <g id="Group-18" transform="translate(123.000000, 12.000000)">
                <mask id="mask-8" fill="white">
                    <use xlink:href="#path-7"></use>
                </mask>
                <g id="Clip-17"></g>
                <path d="M2.15948571,0.535730233 L15.4936286,0.535730233 C16.0329857,0.535730233 16.4887714,0.711544186 16.8616286,1.06254419 C17.2338429,1.41417209 17.4202714,1.85307907 17.4202714,2.38052093 C17.4202714,2.90670698 17.2338429,3.33431163 16.8616286,3.66019535 C16.4887714,3.98670698 16.0329857,4.14933488 15.4936286,4.14933488 L3.85534286,4.14933488 L4.24041429,3.50949767 L4.24041429,11.9410326 L3.89391429,11.5642884 L13.7592,11.5642884 C14.2985571,11.5642884 14.7543429,11.7407302 15.1272,12.0917302 C15.4994143,12.4433581 15.6864857,12.8948233 15.6864857,13.4467535 C15.6864857,13.9735674 15.4994143,14.4005442 15.1272,14.7264279 C14.7543429,15.0529395 14.2985571,15.2155674 13.7592,15.2155674 L3.97041429,15.2155674 L4.24041429,14.8771256 L4.24041429,23.5723814 L3.97041429,23.270986 L15.4936286,23.270986 C16.0329857,23.270986 16.4887714,23.453707 16.8616286,23.8166372 C17.2338429,24.1808233 17.4202714,24.6015209 17.4202714,25.0774744 C17.4202714,25.6049163 17.2338429,26.0375442 16.8616286,26.376614 C16.4887714,26.7150558 16.0329857,26.8845907 15.4936286,26.8845907 L2.15948571,26.8845907 C1.62012857,26.8845907 1.15727143,26.7031256 0.7722,26.3389395 C0.387128571,25.9753814 0.193628571,25.5170093 0.193628571,24.9650791 L0.193628571,2.45524186 C0.193628571,1.90393953 0.387128571,1.44556744 0.7722,1.0813814 C1.15727143,0.717823256 1.62012857,0.535730233 2.15948571,0.535730233" id="Fill-16" fill="#222628" mask="url(#mask-8)"></path>
            </g>
        </g>
    </g>
</svg>
